<svg width="440" height="370" viewBox="0 0 440 370" fill="none" xmlns="http://www.w3.org/2000/svg">
<rect x="159.5" y="135.5" width="122" height="88" rx="8.5" fill="#F2FEF7"/>
<rect x="159.5" y="135.5" width="122" height="88" rx="8.5" stroke="#34BC68"/>
<rect x="196" y="155" width="49" height="49" rx="9" fill="#34BC68" fill-opacity="0.25"/>
<path d="M205 167.387L207.04 169.427C205.867 169.707 205 170.747 205 172V188C205 189.467 206.2 190.667 207.667 190.667H228.28L230.947 193.333L232.627 191.64L206.693 165.693L205 167.387ZM207.667 188V172H209.613L225.613 188H207.667ZM231.667 169.333H221.56L225.947 164.933L225 164L219.667 169.333L214.333 164L213.4 164.933L217.773 169.333H213.693L216.36 172H231.667V187.307L233.867 189.507C234.16 189.08 234.333 188.56 234.333 188V172C234.333 170.52 233.147 169.333 231.667 169.333Z" fill="#34BC68"/>
<rect x="159.5" y="254.5" width="122" height="88" rx="8.5" fill="#F9F9F9"/>
<rect x="159.5" y="254.5" width="122" height="88" rx="8.5" stroke="#C4C4C4"/>
<line x1="180.5" y1="254" x2="180.5" y2="343" stroke="#BDBDBD"/>
<line x1="220.5" y1="254" x2="220.5" y2="343" stroke="#BDBDBD"/>
<line x1="260.5" y1="254" x2="260.5" y2="343" stroke="#BDBDBD"/>
<line x1="159" y1="325.5" x2="282" y2="325.5" stroke="#BDBDBD"/>
<line x1="159" y1="298.5" x2="282" y2="298.5" stroke="#BDBDBD"/>
<line x1="159" y1="271.5" x2="282" y2="271.5" stroke="#BDBDBD"/>
<rect x="159.5" y="16.5" width="122" height="88" rx="8.5" fill="#E7E7E7"/>
<rect x="159.5" y="16.5" width="122" height="88" rx="8.5" stroke="#828282"/>
<rect x="196" y="36" width="49" height="49" rx="9" fill="#F1F1F1"/>
<path fill-rule="evenodd" clip-rule="evenodd" d="M210.561 49.4393C209.975 48.8536 209.025 48.8536 208.439 49.4393C207.854 50.0251 207.854 50.9749 208.439 51.5607L229.439 72.5607C230.025 73.1464 230.975 73.1464 231.561 72.5607C232.146 71.9749 232.146 71.0251 231.561 70.4393L229.351 68.2296C231.657 66.3886 233.409 63.8817 234.314 60.9999C232.402 54.9143 226.717 50.5 220 50.5C217.565 50.5 215.265 51.0804 213.232 52.1104L210.561 49.4393ZM216.952 55.8309L219.223 58.1017C219.471 58.0354 219.732 58 220 58C221.657 58 223 59.3431 223 61C223 61.2688 222.965 61.5294 222.899 61.7774L225.17 64.0482C225.697 63.1549 226 62.1128 226 61C226 57.6863 223.314 55 220 55C218.888 55 217.846 55.3029 216.952 55.8309Z" fill="#CBCBCB"/>
<path d="M223.681 71.0451L219.624 66.9884C216.61 66.8021 214.198 64.3902 214.012 61.3759L208.502 55.8663C207.251 57.3583 206.285 59.0975 205.687 61.0001C207.598 67.0857 213.284 71.5 220 71.5C221.27 71.5 222.503 71.3422 223.681 71.0451Z" fill="#CBCBCB"/>
<rect x="311.5" y="16.5" width="122" height="88" rx="8.5" fill="#E7E7E7"/>
<rect x="311.5" y="16.5" width="122" height="88" rx="8.5" stroke="#828282"/>
<rect x="348" y="36" width="49" height="49" rx="9" fill="#F1F1F1"/>
<path fill-rule="evenodd" clip-rule="evenodd" d="M366.937 49.9819C368.503 49.3482 370.212 49 372 49C379.456 49 385.5 55.0442 385.5 62.5C385.5 63.3284 384.828 64 384 64C383.172 64 382.5 63.3284 382.5 62.5C382.5 56.701 377.799 52 372 52C370.605 52 369.277 52.2713 368.063 52.7627C367.295 53.0735 366.42 52.703 366.11 51.9351C365.799 51.1672 366.169 50.2927 366.937 49.9819ZM363.993 53.4379C364.614 53.9861 364.673 54.934 364.125 55.5551C362.49 57.407 361.5 59.8361 361.5 62.5C361.5 63.3284 360.828 64 360 64C359.172 64 358.5 63.3284 358.5 62.5C358.5 59.0773 359.776 55.9488 361.875 53.5699C362.424 52.9488 363.371 52.8897 363.993 53.4379Z" fill="#CBCBCB"/>
<path fill-rule="evenodd" clip-rule="evenodd" d="M364.5 62.5C364.5 58.3579 367.858 55 372 55C376.142 55 379.5 58.3579 379.5 62.5C379.5 63.3284 378.828 64 378 64C377.172 64 376.5 63.3284 376.5 62.5C376.5 60.0147 374.485 58 372 58C369.515 58 367.5 60.0147 367.5 62.5C367.5 65.0157 366.983 67.4146 366.048 69.5931C365.721 70.3544 364.839 70.7067 364.078 70.38C363.317 70.0533 362.965 69.1713 363.291 68.41C364.069 66.5984 364.5 64.6015 364.5 62.5ZM377.882 65.5185C378.7 65.6483 379.258 66.4168 379.128 67.235C378.931 68.48 378.657 69.6998 378.311 70.8891C378.08 71.6846 377.247 72.142 376.452 71.9108C375.656 71.6795 375.199 70.8472 375.43 70.0517C375.741 68.9822 375.988 67.8852 376.165 66.765C376.295 65.9468 377.064 65.3887 377.882 65.5185Z" fill="#CBCBCB"/>
<path fill-rule="evenodd" clip-rule="evenodd" d="M372 61C372.828 61 373.5 61.6716 373.5 62.5C373.5 65.8544 372.811 69.0518 371.565 71.9553C371.239 72.7166 370.357 73.069 369.595 72.7424C368.834 72.4157 368.482 71.5338 368.808 70.7725C369.897 68.2358 370.5 65.4403 370.5 62.5C370.5 61.6716 371.172 61 372 61Z" fill="#CBCBCB"/>
<rect x="7.5" y="135.5" width="122" height="88" rx="8.5" fill="#E7E7E7"/>
<rect x="7.5" y="135.5" width="122" height="88" rx="8.5" stroke="#828282"/>
<rect x="44" y="155" width="49" height="49" rx="9" fill="#F1F1F1"/>
<path fill-rule="evenodd" clip-rule="evenodd" d="M68 192C74.6274 192 80 186.627 80 180C80 173.373 74.6274 168 68 168C61.3726 168 56 173.373 56 180C56 186.627 61.3726 192 68 192ZM59.4977 177.041C60.0581 175.43 61.0634 174.028 62.3663 172.981C62.7681 173.594 63.4617 174 64.25 174C65.4927 174 66.5 175.007 66.5 176.25V177C66.5 178.657 67.8432 180 69.5 180C71.1569 180 72.5 178.657 72.5 177C72.5 175.59 73.473 174.407 74.7842 174.086C76.1642 175.667 77 177.736 77 180C77 180.511 76.9574 181.012 76.8755 181.5H75.5C73.8431 181.5 72.5 182.843 72.5 184.5V187.796C71.1762 188.562 69.6391 189 67.9999 189V186C67.9999 184.343 66.6567 183 64.9999 183C63.343 183 61.9999 181.657 61.9999 180C61.9999 178.513 60.9176 177.278 59.4977 177.041Z" fill="#CBCBCB"/>
<rect x="311.5" y="135.5" width="122" height="88" rx="8.5" fill="#F9F9F9"/>
<rect x="311.5" y="135.5" width="122" height="88" rx="8.5" stroke="#C4C4C4"/>
<line x1="332.5" y1="135" x2="332.5" y2="224" stroke="#BDBDBD"/>
<line x1="372.5" y1="135" x2="372.5" y2="224" stroke="#BDBDBD"/>
<line x1="412.5" y1="135" x2="412.5" y2="224" stroke="#BDBDBD"/>
<line x1="311" y1="206.5" x2="434" y2="206.5" stroke="#BDBDBD"/>
<line x1="311" y1="179.5" x2="434" y2="179.5" stroke="#BDBDBD"/>
<line x1="311" y1="152.5" x2="434" y2="152.5" stroke="#BDBDBD"/>
<rect x="311.5" y="254.5" width="122" height="88" rx="8.5" fill="#F9F9F9"/>
<rect x="311.5" y="254.5" width="122" height="88" rx="8.5" stroke="#C4C4C4"/>
<line x1="332.5" y1="254" x2="332.5" y2="343" stroke="#BDBDBD"/>
<line x1="372.5" y1="254" x2="372.5" y2="343" stroke="#BDBDBD"/>
<line x1="412.5" y1="254" x2="412.5" y2="343" stroke="#BDBDBD"/>
<line x1="311" y1="325.5" x2="434" y2="325.5" stroke="#BDBDBD"/>
<line x1="311" y1="298.5" x2="434" y2="298.5" stroke="#BDBDBD"/>
<line x1="311" y1="271.5" x2="434" y2="271.5" stroke="#BDBDBD"/>
<rect x="7.5" y="16.5" width="122" height="88" rx="8.5" fill="#F9F9F9"/>
<rect x="7.5" y="16.5" width="122" height="88" rx="8.5" stroke="#C4C4C4"/>
<line x1="28.5" y1="16" x2="28.5" y2="105" stroke="#BDBDBD"/>
<line x1="68.5" y1="16" x2="68.5" y2="105" stroke="#BDBDBD"/>
<line x1="108.5" y1="16" x2="108.5" y2="105" stroke="#BDBDBD"/>
<line x1="7" y1="87.5" x2="130" y2="87.5" stroke="#BDBDBD"/>
<line x1="7" y1="60.5" x2="130" y2="60.5" stroke="#BDBDBD"/>
<line x1="7" y1="33.5" x2="130" y2="33.5" stroke="#BDBDBD"/>
<rect x="7.5" y="254.5" width="122" height="88" rx="8.5" fill="#F9F9F9"/>
<rect x="7.5" y="254.5" width="122" height="88" rx="8.5" stroke="#C4C4C4"/>
<line x1="28.5" y1="254" x2="28.5" y2="343" stroke="#BDBDBD"/>
<line x1="68.5" y1="254" x2="68.5" y2="343" stroke="#BDBDBD"/>
<line x1="108.5" y1="254" x2="108.5" y2="343" stroke="#BDBDBD"/>
<line x1="7" y1="325.5" x2="130" y2="325.5" stroke="#BDBDBD"/>
<line x1="7" y1="298.5" x2="130" y2="298.5" stroke="#BDBDBD"/>
<line x1="7" y1="271.5" x2="130" y2="271.5" stroke="#BDBDBD"/>
<path d="M-16 0H456V370H-16V0Z" fill="url(#paint0_radial_387_7097)"/>
<defs>
<radialGradient id="paint0_radial_387_7097" cx="0" cy="0" r="1" gradientUnits="userSpaceOnUse" gradientTransform="translate(220 168.5) rotate(90) scale(201.5 257.049)">
<stop offset="0.500487" stop-color="white" stop-opacity="0.29"/>
<stop offset="1" stop-color="white"/>
</radialGradient>
</defs>
</svg>
